<svg xmlns="http://www.w3.org/2000/svg" width="289.15" height="89.285" viewBox="0 0 289.15 89.285">
  <g id="Group_7" data-name="Group 7" transform="translate(-325.356 -35.916)">
    <g id="Group_5" data-name="Group 5" transform="translate(325.357 57.938)">
      <path id="Path_14" data-name="Path 14" d="M401.287,86.19c-.373-5.89-1.36-21.538-1.43-28.476l0-.308h-5.682l0,.316c.116,6.734.969,24.766,1.365,29.762l.017.226.218.051a16.146,16.146,0,0,0,2.846.312,17.588,17.588,0,0,1,2.414.231l.387.077Z" transform="translate(-309.108 -52.864)" fill="#d4c5b5"/>
      <path id="Path_15" data-name="Path 15" d="M378.314,85.511a13.893,13.893,0,0,0-3.8-2.164c-.508-.2-.655-.167-.918.283a6.236,6.236,0,0,0-.4.734c-.6,1.43-1.169,2.874-1.786,4.3-.124.288-.053.407.158.539,1.4.879,2.821,1.727,4.192,2.651.466.314.686.093.9-.218a19.348,19.348,0,0,0,1.189-1.962c.43-.857.777-1.753,1.158-2.632a1.456,1.456,0,0,0-.684-1.532" transform="translate(-314.498 -46.766)" fill="#d4c5b5"/>
      <path id="Path_16" data-name="Path 16" d="M329.5,65.2a16.311,16.311,0,0,0,1.339-1.494c.456-.6.859-1.232,1.278-1.86.983.907,1.981,1.8,2.931,2.742.354.347.578.192.8-.042a16.471,16.471,0,0,0,1.342-1.492c.507-.668.951-1.382,1.419-2.078a1.282,1.282,0,0,0-.345-1.433,12.254,12.254,0,0,0-2.931-2.5c-.407-.255-.536-.255-.836.09a5.008,5.008,0,0,0-.467.569c-.622.947-1.232,1.9-1.854,2.843a2.954,2.954,0,0,0-.266-.351,12.238,12.238,0,0,0-2.93-2.494c-.41-.255-.54-.255-.839.09a5.872,5.872,0,0,0-.467.565c-.743,1.136-1.466,2.287-2.224,3.412-.156.229-.113.341.048.491,1.068.99,2.156,1.957,3.19,2.979.351.347.576.2.806-.04" transform="translate(-325.357 -52.991)" fill="#d4c5b5"/>
      <path id="Path_17" data-name="Path 17" d="M405.8,77.789c-.011-.19-.02-.379-.028-.569l-.033-.9c-.026-.63-.048-1.263-.085-1.891-.059-1.033-.138-2.066-.224-3.094s-.18-2.061-.288-3.089-.223-2.041-.356-3.061q-.263-2.01-.556-4.019c-.108-.721-.221-1.439-.334-2.16-.082-.508-.164-1.015-.241-1.523a.441.441,0,0,0-.451-.4l-.356-.025c-.263-.02-.527-.04-.786-.057l-3.906-.231a1.267,1.267,0,0,1-.135-.021l-.122-.016-.956-.015v.32l.577,3.241c.452,2.482.9,4.961,1.328,7.444a67.952,67.952,0,0,1,.936,7.472,33.917,33.917,0,0,1,.059,3.807,11.8,11.8,0,0,1-.381,2.588,2.352,2.352,0,0,1-2.1,1.854,5.846,5.846,0,0,1-2.171-.18,4.607,4.607,0,0,1-3.417-2.937c.178-.147.351-.3.525-.446.334-.286.665-.571,1.01-.839a51.473,51.473,0,0,1,4.968-3.324l.633-.4-1.58-.828q-1.869-.953-3.737-1.916a.647.647,0,0,0-.629,0,20.962,20.962,0,0,0-3.9,2.569c-.119-.073-.241-.141-.362-.211a5.168,5.168,0,0,1-.771-.5,10.559,10.559,0,0,1-3.53-5.186c-.206-.681-.393-1.365-.582-2.052q-.185-.686-.382-1.367a7.2,7.2,0,0,0-7.053-5.288,4.427,4.427,0,0,0-4.058,2.6,5.391,5.391,0,0,0-.494,2.108l-.063.815c-.108,1.373-.218,2.792-.294,4.194-.119,2.241-.132,4.474-.042,6.629a.434.434,0,0,0,.413.459c.506.048,1.011.1,1.52.152l2.832.288c.211.02.424.04.633.057l.692.062-.057-1.257c-.027-.642-.056-1.274-.075-1.907a46.222,46.222,0,0,1,.172-5.631l.023.059c.183.455.367.911.565,1.36a19.293,19.293,0,0,0,2.5,4.449,6.1,6.1,0,0,0,4.739,2.428h.04c-1.41.684-3.069,1.45-4.8,2.127-1.051.413-1.986.755-2.863,1.043a9.7,9.7,0,0,1-1.33.3l-.156.025c-.85.153-1.7.252-2.535.328v0a.466.466,0,0,0-.074.011c-.282.037-.561.077-.844.11-1.119.136-2.109.229-3.027.286a9.511,9.511,0,0,1-1.362-.046l-.158-.014c-.593-.046-1.176-.121-1.755-.206-1.011-.15-2-.339-2.951-.532a29.3,29.3,0,0,1-2.874-.672,41.167,41.167,0,0,1-16.27-10.324c.028.173-.874,17.989-11.212,26.688h8.687c2.38-3.185,6.424-11.649,6.831-15.377a46.994,46.994,0,0,0,5.321,3.27,19.153,19.153,0,0,0,3.152,1.318c1.138.347,2.316.706,3.5.975,1.012.229,2.185.475,3.445.666a17.1,17.1,0,0,0,2.414.362c1.187.051,2.417.1,3.629.059a35.328,35.328,0,0,0,7.486-.913,31.141,31.141,0,0,0,4.954-1.766c.969-.426,1.927-.875,2.885-1.328l1.156-.54.017.04a9.412,9.412,0,0,0,6.6,5.466,15.615,15.615,0,0,0,4.192.389,9.267,9.267,0,0,0,3.451-.69,7.165,7.165,0,0,0,3.876-4.146,12.582,12.582,0,0,0,.795-3.208c.033-.273.064-.55.1-.827l.043-.377.051-1.885Z" transform="translate(-323.499 -53.025)" fill="#d4c5b5"/>
      <path id="Path_18" data-name="Path 18" d="M336.012,77.372q-.2,1.255-.446,2.2a1.9,1.9,0,0,1-3.383.293,7.61,7.61,0,0,1-.424-.839,9.065,9.065,0,0,1-.712-4.151,6.6,6.6,0,0,1,2.1-4.177q3.48,2.852,2.865,6.677m3.242-8.184a12.333,12.333,0,0,0-6.376-4.392,11.27,11.27,0,0,0-5.2,2.651l2.97,1.492-2.428.229q-1.787.873-2.444,4.739a10.011,10.011,0,0,0,1.523,7.233c5.064,8.017,12.275,2.45,12.9,1.077a14.193,14.193,0,0,0,1.305-5.859,11.64,11.64,0,0,0-2.255-7.169" transform="translate(-325.291 -51.119)" fill="#d4c5b5"/>
      <path id="Path_19" data-name="Path 19" d="M361.873,53.731l-11.18,3.561-.446,2.634,11.189-3.6Z" transform="translate(-319.48 -53.731)" fill="#d4c5b5"/>
      <g id="Group_4" data-name="Group 4" transform="translate(29.915 4.366)">
        <path id="Path_20" data-name="Path 20" d="M349.956,62.285l-.15.687a8.51,8.51,0,0,0-.121,3.472,1.671,1.671,0,0,0,1.439,1.134,2.811,2.811,0,0,0,1.947-.506,11.373,11.373,0,0,0,2.384-2.122l.614.684.579.475a3.813,3.813,0,0,0,1.235.523,2.174,2.174,0,0,0,2.258-.859,8.958,8.958,0,0,0,1.305-3.806l.351-2.075.286-2.257-1.795.567-.2,1.153-.15.888a4.968,4.968,0,0,1-.8,2.3,1.4,1.4,0,0,1-1.388.435.722.722,0,0,1-.619-.653,5.89,5.89,0,0,1-.09-1.235l.193-1.733-2.126.373-.064.4-.47,1.986-.639,1.417c-.486.774-1.017,1.11-1.6,1.006a1.237,1.237,0,0,1-.6-.681,12.457,12.457,0,0,1,.325-3l-1.79.534Z" transform="translate(-349.557 -57.175)" fill="#d4c5b5"/>
        <path id="Path_21" data-name="Path 21" d="M417.374,70.982c.9.755,1.7,2.315,2.383,4.653a8.129,8.129,0,0,1-.32,6.3,10.547,10.547,0,0,1-1.986-5.087,18.7,18.7,0,0,1-.077-5.868m-1.712,22.054c-1.876-4.409-9.821-18.515-3.742-21.824a23.779,23.779,0,0,0,1.014,8.947,14.915,14.915,0,0,0,3.609,6.288l.062.057.079.02c2.621.571,4.64.356,6-.644a3.931,3.931,0,0,0,1.366-1.795c.859.791,3.823,3.988,14.5,1.1A54,54,0,0,1,451.141,83.7l.426-.009-1.938-5.386-.218,0a20.313,20.313,0,0,0-2.443.308c-3.67.582-9.817,1.558-12.667-1.918-.789-.96-1.382-1.764-1.235-2.595.127-.732.822-1.461,2.129-2.23a13.194,13.194,0,0,1,4.869-1.545,11.771,11.771,0,0,1,4.581.178,29.193,29.193,0,0,1-7.365,2.979l-.413.106,2.968,4.715.224-.073c4.179-1.355,6.8-2.674,8.009-4.036a3.89,3.89,0,0,0,1.02-4.223,10.387,10.387,0,0,0-2.255-3.473c-1-1.017-2.75-1.606-5.33-1.8A15.169,15.169,0,0,0,433.57,66.5a12.262,12.262,0,0,0-5.89,5.9c-1.121,2.467-.178,5.11,2.816,7.865-3.972.215-4.237-1.58-4.435-2.911a5.467,5.467,0,0,0-.112-.624A23.044,23.044,0,0,0,422,68.233a10.563,10.563,0,0,0-6.972-3.9c-2.92-.429-5.71.679-8.239,3.313-8.009,8.325,2.742,24.57,3,25.385Z" transform="translate(-336.742 -55.614)" fill="#d4c5b5"/>
        <path id="Path_22" data-name="Path 22" d="M478.953,76.7l-.98-.1c.132-1.037.273-2.289.415-3.733,2.009,2.944,2.944,6.726,2.784,11.265-.949-1.32-1.682-3.733-2.185-7.2Zm-16.2,2.718c-1.456,1.147-3.985,1.86-7.523,2.114a17.611,17.611,0,0,1,3.16-5.471,6.342,6.342,0,0,1,4.208-2.323c.116-.011.226-.015.334-.015a1.966,1.966,0,0,1,1.331.4,2,2,0,0,1,.574,1.41,4.49,4.49,0,0,1-2.083,3.88m21.7,8.21c2.072-2.448,1.617-7.178.873-10.717-.813-3.867-2.21-6.783-4.185-8.7-1.9-1.323-3.524-1.676-4.827-1.052-2.834,1.36-3.342,6.885-3.648,10.186a12.335,12.335,0,0,1-.252,1.942c-.684,1.774-1.244,2.1-1.514,2.138-.444.068-.876-.523-1.136-.873a.287.287,0,0,0-.028-.04,9.73,9.73,0,0,0,1.376-5.958,6.806,6.806,0,0,0-4.214-6.186c-2.617-1.294-5.644-.891-9,1.2-.23-4.451-.408-8.7-.436-11.528h-5.072c.062,3.516.321,10.129.616,16.358a26.54,26.54,0,0,0-3.041,6.593,1.225,1.225,0,0,1-.342-.26c-.059-.105-.127-.2-.18-.311a11.618,11.618,0,0,1-.826-2.555,29.274,29.274,0,0,1-.483-2.959,64.494,64.494,0,0,1-.409-7.82c.011-3.276.062-6.55.1-9.826l-5.906,1.2q.009,1.246.028,2.494c.028,1.351.064,2.7.116,4.053.036,1.023.09,2.049.152,3.072s.138,2.058.224,3.084.18,2.057.291,3.083c.1.921.229,1.843.342,2.764.033.263.062.529.093.795l.356,1.822c.11.379.218.758.331,1.134a12.285,12.285,0,0,0,1.277,2.953,6.943,6.943,0,0,0,3.485,3.021,7.179,7.179,0,0,0,4.954,1.043,41.532,41.532,0,0,0,6.534-.492,14.514,14.514,0,0,0,6.181-2.591c.883.972,2.81,2.727,5.026,2.45,1.508-.189,2.837-1.289,3.959-3.27,1.288,3.153,2.9,4.942,4.816,5.321a4.954,4.954,0,0,0,4.366-1.577" transform="translate(-327.749 -57.263)" fill="#d4c5b5"/>
      </g>
    </g>
    <g id="Group_6" data-name="Group 6" transform="translate(527.029 35.916)">
      <path id="Path_23" data-name="Path 23" d="M534.811,81.028c-.7-.271-.9-.232-1.268.387a8.607,8.607,0,0,0-.557,1.014c-.825,1.974-1.611,3.964-2.46,5.927-.172.4-.077.562.216.747,1.932,1.21,3.889,2.38,5.78,3.653.643.433.947.129,1.232-.3a26.361,26.361,0,0,0,1.642-2.7c.591-1.179,1.07-2.417,1.6-3.628a2,2,0,0,0-.943-2.11,19.076,19.076,0,0,0-5.24-2.984" transform="translate(-478.606 -25.302)" fill="#d4c5b5"/>
      <path id="Path_24" data-name="Path 24" d="M514.734,65.1a24.865,24.865,0,0,0,2.019-2.251c.685-.9,1.294-1.86,1.925-2.8,1.482,1.365,2.983,2.712,4.417,4.129.53.524.869.293,1.214-.061a24.7,24.7,0,0,0,2.02-2.251c.763-1,1.431-2.083,2.14-3.13a1.933,1.933,0,0,0-.519-2.158,18.483,18.483,0,0,0-4.415-3.76c-.616-.383-.812-.382-1.263.136a8.254,8.254,0,0,0-.7.854c-.934,1.426-1.853,2.864-2.794,4.288a4.312,4.312,0,0,0-.4-.532,18.484,18.484,0,0,0-4.415-3.76c-.614-.383-.812-.382-1.263.136a8.1,8.1,0,0,0-.7.854c-1.121,1.711-2.211,3.444-3.355,5.139-.231.344-.169.517.075.744,1.607,1.49,3.247,2.946,4.806,4.487.53.524.87.293,1.215-.061" transform="translate(-483.788 -31.99)" fill="#d4c5b5"/>
      <path id="Path_25" data-name="Path 25" d="M488.507,80.563a45.013,45.013,0,0,1,12.362-31.081,43.677,43.677,0,0,1,13.858-9.817,42.984,42.984,0,0,1,33.484-.691,43.893,43.893,0,0,1,14.519,9.545,44.916,44.916,0,0,1,12.382,23.157,45.7,45.7,0,0,1,0,17.772,45.528,45.528,0,0,1-2.583,8.529,44.772,44.772,0,0,1-9.8,14.622,43.946,43.946,0,0,1-14.518,9.543,43.128,43.128,0,0,1-40.887-4.912,44.923,44.923,0,0,1-18.812-36.667m0,0a44.991,44.991,0,0,0,.837,8.522,43.059,43.059,0,0,0,11.88,22.2,42.1,42.1,0,0,0,13.925,9.141,41.19,41.19,0,0,0,32.078-.689,41.8,41.8,0,0,0,13.265-9.411,43.146,43.146,0,0,0-6.177-64.868,41.235,41.235,0,0,0-39.164-4.744,42.142,42.142,0,0,0-13.925,9.136,42.9,42.9,0,0,0-9.406,14.018,43.418,43.418,0,0,0-2.477,8.176,45.013,45.013,0,0,0-.837,8.523" transform="translate(-488.507 -35.916)" fill="#d4c5b5"/>
      <path id="Path_26" data-name="Path 26" d="M516.178,75.745a6.093,6.093,0,1,1-5.97,6.092,6.031,6.031,0,0,1,5.97-6.092m47.616-6.635-.111-.4A40.511,40.511,0,0,0,549.65,48.17a34.4,34.4,0,0,0-6.91-4.073l-3.708-1.57L542.3,45c.9.681,5.4,4.331,5.628,9.336l.01.219.574.491c.329.279.742.63.86.737a31.594,31.594,0,0,1,10.153,22.414c.177,9.6-3.723,18.683-10.432,24.3a30.445,30.445,0,0,1-27.275,6.262,29.012,29.012,0,0,1-5.143-1.9,30.668,30.668,0,0,1-16.634-32.811,31.28,31.28,0,0,1,6.077-13.887,30.359,30.359,0,0,1,22.908-11.68c4.069-.068,9.266,1.6,11.158,5.524,2.7,5.6-1.143,9.927-4.867,14.109-1.114,1.25-2.166,2.433-3.058,3.654l-.089.116a2.027,2.027,0,0,0-.583,1.6l.054.227c.345,1.443.923,3.855,2.032,4.827.867.764,2.666-.136,5.675-2.064.362-.231.651-.418.826-.513.857-.472,1.734-1.019,2.584-1.546a27.263,27.263,0,0,1,5.363-2.821,1.3,1.3,0,0,1,1.2.017.766.766,0,0,1,.183.739c-.4,2.875-3.145,4.728-5.917,6.38l-.724.43a52.26,52.26,0,0,0-7.377,4.972,27.26,27.26,0,0,0-4.439,5.341,28.309,28.309,0,0,1-4.032,4.957,12.052,12.052,0,0,1-12.71,2.391,13.387,13.387,0,0,1-7.628-10.115q-.057-.358-.093-.714.141.58.354,1.2a9.429,9.429,0,0,0,5.4,5.642,9.922,9.922,0,0,0,8.278-.215,12.263,12.263,0,0,0,5.127-5.283,10.236,10.236,0,0,0,.561-7.8A11.983,11.983,0,0,0,505.5,75.368a15.521,15.521,0,0,0-3.014,13.191c1.362,6.518,7.46,13.251,14.184,15.66,3.284,1.179,8.115,1.816,12.479-1.826a30.315,30.315,0,0,0,5.015-5.848c.764-1.063,1.555-2.164,2.405-3.187a25.888,25.888,0,0,1,5.113-4.475c.593-.419,1.2-.828,1.8-1.236,1.293-.879,2.632-1.787,3.885-2.787a20.806,20.806,0,0,0,2.644-2.455,18.947,18.947,0,0,0,4.234-8.323c.559-2.52,1.22-7.09-.629-9.37-2.115-2.6-6.713-.07-9.972,1.848,1.085-1.546,2.257-3.391,2.388-3.659a12.958,12.958,0,0,0,.719-10.37,16.181,16.181,0,0,0-9.137-9.008c-11.26-4.729-25.82,1.241-33.8,9.262a37.66,37.66,0,0,0-8.637,38.239,36.385,36.385,0,0,0,10.8,16.246,36.005,36.005,0,0,0,23.28,8.61h.043a35.828,35.828,0,0,0,23.243-8.517,34.551,34.551,0,0,0,4.3-4.391,37.662,37.662,0,0,0,8.218-21.782,38.44,38.44,0,0,0-1.26-12.083" transform="translate(-487.395 -34.515)" fill="#d4c5b5"/>
    </g>
  </g>
</svg>
